<svg xmlns="http://www.w3.org/2000/svg" viewBox="70 190 372 285">
  <defs><linearGradient id="g" x1="0" y1="0" x2="0" y2="1"><stop stop-color="#fffdf5"/><stop offset="1" stop-color="#ead7ad"/></linearGradient></defs>
  <path d="M150 218 Q118 263 93 413 Q128 448 189 455 L218 318 Q256 342 294 318 L323 455 Q384 448 419 413 Q394 263 362 218 Q317 250 256 250 Q195 250 150 218Z" fill="url(#g)" stroke="#c8a257" stroke-width="10"/>
  <path d="M150 218 Q256 279 362 218" fill="none" stroke="#fff" stroke-width="20" stroke-linecap="round"/>
  <path d="M150 218 Q256 279 362 218" fill="none" stroke="#c8a257" stroke-width="7" stroke-linecap="round"/>
  <circle cx="256" cy="251" r="15" fill="#fff" stroke="#c8a257" stroke-width="6"/><path d="M256 240l6 9 10 3-7 8 1 11-10-4-10 4 1-11-7-8 10-3z" fill="#e3bd55"/>
</svg>
