<svg xmlns="http://www.w3.org/2000/svg" viewBox="0 0 200 180"><path d="M92 90C50 12 4 27 23 88c12 39 47 27 69 12M108 90c42-78 88-63 69-2-12 39-47 27-69 12" fill="#9f7bea" stroke="#6041a8" stroke-width="8"/><path d="M91 97c-40 4-62 54-25 65 25 7 36-25 36-55M109 97c40 4 62 54 25 65-25 7-36-25-36-55" fill="#6fd4e8" stroke="#368da8" stroke-width="7"/><ellipse cx="100" cy="96" rx="12" ry="48" fill="#573c78"/><path d="M96 50Q76 18 60 28M104 50q20-32 36-22" fill="none" stroke="#573c78" stroke-width="6" stroke-linecap="round"/></svg>
