<svg xmlns="http://www.w3.org/2000/svg" viewBox="145 65 222 265"><path d="M256 76l17 31 35 7-24 26 4 36-32-15-32 15 4-36-24-26 35-7z" fill="#ffd84f" stroke="#b88921" stroke-width="7"/><path d="M256 111l-65 97h38l-55 74h164l-55-74h38z" fill="#63a943" stroke="#2f762e" stroke-width="9" stroke-linejoin="round"/><path d="M161 286q95 34 190 0l-7 31q-88 28-176 0z" fill="#e9f6df" stroke="#2f762e" stroke-width="7"/><g fill="#f08eab"><circle cx="222" cy="193" r="10"/><circle cx="290" cy="218" r="10"/><circle cx="249" cy="265" r="10"/></g><g fill="#8aa9ff"><circle cx="276" cy="169" r="9"/><circle cx="207" cy="244" r="9"/><circle cx="315" cy="266" r="9"/></g></svg>
